<svg xmlns="http://www.w3.org/2000/svg" viewBox="0 0 540 490" role="img" aria-label="P15 arc field vectors">
<rect width="540" height="490" rx="12" fill="#161a26"/>
<line x1="270.0" y1="420.4" x2="270.0" y2="48.0" stroke="#6b7280" stroke-width="1.3"/>
<text x="280.0" y="60.0" fill="#9ca3af" font-size="12" text-anchor="start" font-weight="normal" font-family="Inter,Arial,sans-serif">y</text>
<line x1="48.0" y1="241.4" x2="492.0" y2="241.4" stroke="#6b7280" stroke-width="1.3"/>
<text x="488.0" y="234.4" fill="#9ca3af" font-size="12" text-anchor="end" font-weight="normal" font-family="Inter,Arial,sans-serif">x</text>
<line x1="413.2" y1="241.4" x2="270.0" y2="241.4" stroke="#4b5563" stroke-width="1.2" stroke-dasharray="5,4"/>
<line x1="394.0" y1="169.7" x2="270.0" y2="241.4" stroke="#4b5563" stroke-width="1.2" stroke-dasharray="5,4"/>
<line x1="294.9" y1="100.3" x2="270.0" y2="241.4" stroke="#4b5563" stroke-width="1.2" stroke-dasharray="5,4"/>
<line x1="177.9" y1="131.6" x2="270.0" y2="241.4" stroke="#4b5563" stroke-width="1.2" stroke-dasharray="5,4"/>
<line x1="135.4" y1="192.4" x2="270.0" y2="241.4" stroke="#4b5563" stroke-width="1.2" stroke-dasharray="5,4"/>
<line x1="270.0" y1="241.4" x2="329.0" y2="241.4" stroke="#fbbf24" stroke-width="3"/>
<polygon points="340.0,241.4 329.0,246.9 329.0,235.9" fill="#fbbf24"/>
<line x1="270.0" y1="241.4" x2="218.9" y2="270.9" stroke="#fbbf24" stroke-width="3"/>
<polygon points="209.4,276.4 216.2,266.1 221.7,275.6" fill="#fbbf24"/>
<line x1="270.0" y1="241.4" x2="259.8" y2="299.5" stroke="#fbbf24" stroke-width="3"/>
<polygon points="257.8,310.3 254.3,298.5 265.2,300.4" fill="#fbbf24"/>
<line x1="270.0" y1="241.4" x2="232.1" y2="196.2" stroke="#fbbf24" stroke-width="3"/>
<polygon points="225.0,187.7 236.3,192.6 227.9,199.7" fill="#fbbf24"/>
<line x1="270.0" y1="241.4" x2="325.4" y2="261.5" stroke="#fbbf24" stroke-width="3"/>
<polygon points="335.8,265.3 323.6,266.7 327.3,256.4" fill="#fbbf24"/>
<line x1="270.0" y1="241.4" x2="284.9" y2="303.0" stroke="#4ade80" stroke-width="4"/>
<polygon points="288.0,315.6 278.6,304.5 291.3,301.4" fill="#4ade80"/>
<text x="291.8" y="335.2" fill="#4ade80" font-size="13" text-anchor="middle" font-weight="bold" font-family="Inter,Arial,sans-serif">3.93×10⁻⁶ N/C at −76.4°</text>
<circle cx="413.2" cy="241.4" r="11" fill="#3b82f6"/>
<text x="413.2" y="246.4" fill="#fff" font-size="15" text-anchor="middle" font-weight="normal" font-family="Inter,Arial,sans-serif">−</text>
<text x="439.2" y="245.4" fill="#e5e7eb" font-size="12.5" text-anchor="start" font-weight="normal" font-family="Inter,Arial,sans-serif">e (0°)</text>
<circle cx="394.0" cy="169.7" r="11" fill="#ef4444"/>
<text x="394.0" y="174.7" fill="#fff" font-size="15" text-anchor="middle" font-weight="normal" font-family="Inter,Arial,sans-serif">+</text>
<text x="416.6" y="160.7" fill="#e5e7eb" font-size="12.5" text-anchor="start" font-weight="normal" font-family="Inter,Arial,sans-serif">p (30°)</text>
<circle cx="294.9" cy="100.3" r="11" fill="#ef4444"/>
<text x="294.9" y="105.3" fill="#fff" font-size="15" text-anchor="middle" font-weight="normal" font-family="Inter,Arial,sans-serif">+</text>
<text x="299.4" y="78.7" fill="#e5e7eb" font-size="12.5" text-anchor="middle" font-weight="normal" font-family="Inter,Arial,sans-serif">p (80°)</text>
<circle cx="177.9" cy="131.6" r="11" fill="#3b82f6"/>
<text x="177.9" y="136.6" fill="#fff" font-size="15" text-anchor="middle" font-weight="normal" font-family="Inter,Arial,sans-serif">−</text>
<text x="161.2" y="115.7" fill="#e5e7eb" font-size="12.5" text-anchor="end" font-weight="normal" font-family="Inter,Arial,sans-serif">e (130°)</text>
<circle cx="135.4" cy="192.4" r="11" fill="#ef4444"/>
<text x="135.4" y="197.4" fill="#fff" font-size="15" text-anchor="middle" font-weight="normal" font-family="Inter,Arial,sans-serif">+</text>
<text x="111.0" y="187.5" fill="#e5e7eb" font-size="12.5" text-anchor="end" font-weight="normal" font-family="Inter,Arial,sans-serif">p (160°)</text>
<circle cx="270.0" cy="241.4" r="5" fill="#f9fafb"/>
<text x="256.0" y="229.4" fill="#f9fafb" font-size="13" text-anchor="end" font-weight="bold" font-family="Inter,Arial,sans-serif">centre</text>
<text x="270.0" y="446.0" fill="#9ca3af" font-size="12" text-anchor="middle" font-weight="normal" font-family="Inter,Arial,sans-serif">Each charge gives the same 3.60×10⁻⁶ N/C: protons push away, electrons pull toward.</text>
<text x="270.0" y="464.0" fill="#9ca3af" font-size="12" text-anchor="middle" font-weight="normal" font-family="Inter,Arial,sans-serif">Charge angles from +x: e 0°, p 30°, p 80°, e 130°, p 160°.</text>
</svg>
