<svg xmlns="http://www.w3.org/2000/svg" viewBox="0 0 500 457" role="img" aria-label="Q2: force direction diagram at B">
<rect width="500" height="457" rx="12" fill="#161a26"/>
<polyline points="118.8,330.4 381.2,330.4 250.0,103.0 118.8,330.4" fill="none" stroke="#9ca3af" stroke-width="1.5"/>
<line x1="118.8" y1="330.4" x2="250.0" y2="103.0" stroke="#4b5563" stroke-width="1.2" stroke-dasharray="5,4"/>
<line x1="381.2" y1="330.4" x2="250.0" y2="103.0" stroke="#4b5563" stroke-width="1.2" stroke-dasharray="5,4"/>
<text x="250.0" y="350.4" fill="#f59e0b" font-size="12" text-anchor="middle" font-weight="bold" font-family="Inter,Arial,sans-serif">3 m</text>
<line x1="250.0" y1="103.0" x2="213.0" y2="167.1" stroke="#fbbf24" stroke-width="3"/>
<polygon points="207.5,176.7 208.2,164.4 217.8,169.9" fill="#fbbf24"/>
<text x="199.5" y="194.5" fill="#fbbf24" font-size="12.5" text-anchor="end" font-weight="normal" font-family="Inter,Arial,sans-serif">F_BA</text>
<line x1="250.0" y1="103.0" x2="287.0" y2="167.1" stroke="#fbbf24" stroke-width="3"/>
<polygon points="292.5,176.7 282.2,169.9 291.8,164.4" fill="#fbbf24"/>
<text x="300.5" y="194.5" fill="#fbbf24" font-size="12.5" text-anchor="start" font-weight="normal" font-family="Inter,Arial,sans-serif">F_BC</text>
<line x1="250.0" y1="103.0" x2="250.0" y2="237.3" stroke="#4ade80" stroke-width="4"/>
<polygon points="250.0,250.3 243.5,237.3 256.5,237.3" fill="#4ade80"/>
<text x="264.0" y="253.0" fill="#4ade80" font-size="13" text-anchor="start" font-weight="bold" font-family="Inter,Arial,sans-serif">F = 0.173 N (−ĵ)</text>
<circle cx="118.8" cy="330.4" r="11" fill="#3b82f6"/>
<text x="118.8" y="335.4" fill="#fff" font-size="15" text-anchor="middle" font-weight="normal" font-family="Inter,Arial,sans-serif">−</text>
<text x="96.5" y="347.8" fill="#e5e7eb" font-size="12.5" text-anchor="end" font-weight="normal" font-family="Inter,Arial,sans-serif">A: −10 μC</text>
<circle cx="381.2" cy="330.4" r="11" fill="#3b82f6"/>
<text x="381.2" y="335.4" fill="#fff" font-size="15" text-anchor="middle" font-weight="normal" font-family="Inter,Arial,sans-serif">−</text>
<text x="403.5" y="347.8" fill="#e5e7eb" font-size="12.5" text-anchor="start" font-weight="normal" font-family="Inter,Arial,sans-serif">C: −10 μC</text>
<circle cx="250.0" cy="103.0" r="11" fill="#ef4444"/>
<text x="250.0" y="108.0" fill="#fff" font-size="15" text-anchor="middle" font-weight="normal" font-family="Inter,Arial,sans-serif">+</text>
<text x="250.0" y="81.0" fill="#e5e7eb" font-size="12.5" text-anchor="middle" font-weight="normal" font-family="Inter,Arial,sans-serif">B: +10 μC</text>
<text x="250.0" y="26.0" fill="#e5e7eb" font-size="14" text-anchor="middle" font-weight="bold" font-family="Inter,Arial,sans-serif">Q2: force direction diagram at B</text>
<text x="250.0" y="413.0" fill="#9ca3af" font-size="12" text-anchor="middle" font-weight="normal" font-family="Inter,Arial,sans-serif">Unlike charges attract: B is pulled toward A and toward C.</text>
<text x="250.0" y="431.0" fill="#9ca3af" font-size="12" text-anchor="middle" font-weight="normal" font-family="Inter,Arial,sans-serif">Sideways parts cancel; the downward parts add.</text>
</svg>
